<svg xmlns="http://www.w3.org/2000/svg" width="900" height="190" viewBox="0 0 900 190" role="img">
<defs>
<linearGradient id="metal" x1="0" y1="0" x2="1" y2="1">
<stop offset="0" stop-color="#f4f7f5"/><stop offset=".25" stop-color="#9aa8a4"/>
<stop offset=".5" stop-color="#fff"/><stop offset=".72" stop-color="#697773"/>
<stop offset="1" stop-color="#dce5e1"/>
</linearGradient>
<linearGradient id="mint" x1="0" y1="0" x2="1" y2="1">
<stop offset="0" stop-color="#087f60"/><stop offset="1" stop-color="#34d19b"/>
</linearGradient>
</defs>

<!-- Simple drone / rescue icon -->
<g transform="translate(28 27)" fill="none" stroke-linecap="round" stroke-linejoin="round">
<g stroke="url(#mint)" stroke-width="7">
<path d="M57 78 C66 68 82 68 91 78 C82 88 66 88 57 78Z"/>
<path d="M66 72 45 45M82 72 103 45"/>
<path d="M45 45C34 34 20 34 14 42C22 53 35 57 45 45Z"/>
<path d="M103 45C114 34 128 34 134 42C126 53 113 57 103 45Z"/>
<path d="M66 87 51 108M82 87 97 108"/>
<path d="M47 110C61 116 87 116 101 110"/>
</g>
<g stroke="#dff8ef" stroke-width="4">
<path d="M74 67V89M63 78H85"/>
</g>
</g>

<!-- All text side-by-side -->
<text x="190" y="123" font-family="Brush Script MT, Segoe Script, URW Chancery L, cursive"
font-size="86" font-weight="600" font-style="italic" fill="#087f60">ELIOS</text>

<circle cx="486" cy="99" r="4.5" fill="#34d19b"/>

<text x="510" y="119" font-family="Montserrat, Arial, sans-serif" font-size="68"
font-weight="800" letter-spacing="6" fill="url(#metal)" stroke="#7b8985"
stroke-width=".7">S.A.R.</text>
</svg>